# AST/ASF file generated using VICON BodyLanguage
# -----------------------------------------------
:version 1.10
:name VICON
:units
  mass 1.0
  length 0.45
  angle deg
:documentation
   .ast/.asf automatically generated from VICON data using
   VICON BodyBuilder and BodyLanguage model FoxedUp or BRILLIANT.MOD
:root
   order TX TY TZ RX RY RZ
   axis XYZ
   position 0 0 0  
   orientation 0 0 0 
:bonedata
  begin
     id 1 
     name lhipjoint
     direction 0.63403 -0.759788 0.143974 
     length 2.51904 
     axis 0 0 0  XYZ
  end
  begin
     id 2 
     name lfemur
     direction 0.34202 -0.939693 0  
     length 7.42313  
     axis 0 0 20  XYZ
    dof rx ry rz
    limits (-160.0 20.0)
           (-70.0 70.0)
           (-60.0 70.0)
  end
  begin
     id 3 
     name ltibia
     direction 0.34202 -0.939693 0   
     length 8.10141   
     axis 0 0 20   XYZ
    dof rx
    limits (-10.0 170.0)
  end
  begin
     id 4 
     name lfoot
     direction 0.0927455 -0.254816 0.962532   
     length 2.14078   
     axis -90 7.62852e-016 20   XYZ
    dof rx rz
    limits (-45.0 90.0)
           (-70.0 20.0)
  end
  begin
     id 5 
     name ltoes
     direction 1.53556e-011 -4.21949e-011 1   
     length 1.07182   
     axis -90 7.62852e-016 20   XYZ
    dof rx
    limits (-90.0 20.0)
  end
  begin
     id 6 
     name rhipjoint
     direction -0.659892 -0.738223 0.139888   
     length 2.59263  
     axis 0 0 0  XYZ 
  end
  begin
     id 7 
     name rfemur
     direction -0.34202 -0.939693 0   
     length 7.58575   
     axis 0 0 -20   XYZ
    dof rx ry rz
    limits (-160.0 20.0)
           (-70.0 70.0)
           (-70.0 60.0)
  end
  begin
     id 8 
     name rtibia
     direction -0.34202 -0.939693 0   
     length 8.19358   
     axis 0 0 -20   XYZ
    dof rx
    limits (-10.0 170.0)
 end
 begin
     id 9 
     name rfoot
     direction -0.0856543 -0.235333 0.968133   
     length 2.13415  
     axis -90 -7.62852e-016 -20   XYZ
    dof rx rz
    limits (-45.0 90.0)
           (-20.0 70.0)
  end
  begin
     id 10 
     name rtoes
     direction -1.53551e-011 -4.21811e-011 1   
     length 1.07055   
     axis -90 -7.62852e-016 -20   XYZ
    dof rx
    limits (-90.0 20.0)
  end
  begin
     id 11 
     name lowerback
     direction 0.025219 0.998394 -0.0507326   
     length 1.91844   
     axis 0 0 0   XYZ
    dof rx ry rz
    limits (-20.0 45.0)
           (-30.0 30.0)
           (-30.0 30.0)
  end
  begin
     id 12 
     name upperback
     direction 0.0213103 0.99967 -0.0143101   
     length 1.92246   
     axis 0 0 0   XYZ
    dof rx ry rz
    limits (-20.0 45.0)
           (-30.0 30.0)
           (-30.0 30.0)
  end
  begin
     id 13 
     name thorax
     direction 0.00920974 0.99991 0.00971518   
     length 1.92239   
     axis 0 0 0   XYZ
    dof rx ry rz
    limits (-20.0 45.0)
           (-30.0 30.0)
           (-30.0 30.0)
  end
  begin
     id 14 
     name lowerneck
     direction 0.0598257 0.997249 0.0437612   
     length 3.13679   
     axis 0 0 0   XYZ
    dof rx ry rz
    limits (-20.0 45.0)
           (-30.0 30.0)
           (-30.0 30.0)
  end
  begin
     id 15 
     name upperneck
     direction -0.035342 0.999338 0.00863891   
     length 3.16283   
     axis 0 0 0   XYZ
    dof rx ry rz
    limits (-20.0 45.0)
           (-30.0 30.0)
           (-30.0 30.0)
  end
  begin
     id 16
     name head
     direction 0.37144 0.811566 0.450991  
     length 1.2838  
     axis 0 0 0   XYZ
    dof rx ry rz
    limits (-20.0 45.0)
           (-30.0 30.0)
           (-30.0 30.0)
  end
  begin
     id 17 
     name lclavicle
     direction 0.961094 0.274654 -0.0293862  
     length 3.63466  
     axis 0 0 0   XYZ
    dof ry rz
    limits (-20.0 10.0)
           (0.0 20.0)
  end
  begin
     id 18 
     name lhumerus
     direction 1 -4.48963e-011 1.10303e-027   
     length 5.12842   
     axis 180 -30 -90   XYZ
    dof rx ry rz
    limits (-60.0 90.0)
           (-90.0 90.0)
           (-90.0 90.0)
  end
  begin
     id 19
     name lradius
     direction 1 -4.48968e-011 4.13199e-027   
     length 3.47396   
     axis 180 -30 -90   XYZ
    dof rx
    limits (-10.0 170.0)
  end
  begin
     id 20
     name lwrist
     direction 1 -4.48948e-011 9.12708e-027   
     length 1.73698   
     axis -6.84618e-015 90 90   XYZ
    dof ry
    limits (-180.0 0.0)
 end
  begin
     id 21 
     name lhand
     direction 1 -4.49057e-011 1.82749e-026   
     length 0.728607   
     axis -1.16502e-014 90 90   XYZ
    dof rx rz
    limits (-90.0 90.0)
           (-45.0 45.0)
  end
  begin
     id 22 
     name lfingers
     direction 1 -4.48912e-011 3.64949e-026   
     length 0.587422   
     axis -2.33008e-014 90 90   XYZ
    dof rx
    limits (0.0 90.0)
  end
  begin
     id 23
     name lthumb
     direction 0.707107 -6.34995e-011 0.707107   
     length 0.843424   
     axis -90 45 5.69224e-014   XYZ
    dof rx rz
    limits (-45.0 45.0)
           (-45.0 45.0)
  end
  begin
     id 24 
     name rclavicle
     direction -0.90514 0.421881 -0.0523369   
     length 3.57139  
     axis 0 0 0   XYZ 
    dof ry rz
    limits (-10.0 20.0)
           (-20.0 0.0)
  end
  begin
     id 25 
     name rhumerus
     direction -1 -4.48954e-011 -1.76662e-027  
     length 5.48477   
     axis 180 30 90   XYZ
    dof rx ry rz
    limits (-90.0 60.0)
           (-90.0 90.0)
           (-90.0 90.0)
  end
  begin
     id 26 
     name rradius
     direction -1 -4.48982e-011 1.26841e-027   
     length 3.47856   
     axis 180 30 90   XYZ
    dof rx
    limits (-10.0 170.0)
  end
  begin
     id 27 
     name rwrist
     direction -1 -4.49037e-011 9.13554e-027   
     length 1.73928   
     axis -6.84618e-015 -90 -90   XYZ
    dof ry
    limits (-180.0 0.0)
  end
  begin
     id 28
     name rhand
     direction -1 -4.48871e-011 1.82397e-026   
     length 0.709974   
     axis -1.16502e-014 -90 -90   XYZ
    dof rx rz
    limits (-90.0 90.0)
           (-45.0 45.0)
  end
  begin
     id 29
     name rfingers
     direction -1 -4.48994e-011 3.65258e-026   
     length 0.572399   
     axis -2.33008e-014 -90 -90   XYZ
    dof rx
    limits (0.0 90.0)
  end
  begin
     id 30
     name rthumb
     direction -0.707107 -6.34861e-011 0.707107   
     length 0.821855   
     axis -90 -45 -5.69224e-014   XYZ
    dof rx rz
    limits (-45.0 45.0)
           (-45.0 45.0)
  end
:hierarchy
  begin
    root lhipjoint rhipjoint lowerback
    lhipjoint lfemur
    lfemur ltibia
    ltibia lfoot
    lfoot ltoes
    rhipjoint rfemur
    rfemur rtibia
    rtibia rfoot
    rfoot rtoes
    lowerback upperback
    upperback thorax
    thorax lowerneck lclavicle rclavicle
    lowerneck upperneck
    upperneck head
    lclavicle lhumerus
    lhumerus lradius
    lradius lwrist
    lwrist lhand lthumb
    lhand lfingers
    rclavicle rhumerus
    rhumerus rradius
    rradius rwrist
    rwrist rhand rthumb
    rhand rfingers
  end

#!OML:ASF F:\VICON\USERDATA\INSTALL\Justin1\Justin1.ASF
:FULLY-SPECIFIED
:DEGREES
823
root -18.5496 17.7222 -3.04927 0.249793 8.54558 -4.26887
lowerback 10.7086 5.53482 6.50613
upperback 2.28907 8.10046 1.05274
thorax -2.81862 3.98709 -3.51234
lowerneck -4.34174 20.0019 0.657961
upperneck 17.6536 31.8942 -18.0904
head 9.57402 13.9841 -2.39924
rclavicle -9.69075e-015 -2.90226e-014
rhumerus -29.7856 -8.95133 -74.8223
rradius 37.6048
rwrist -8.05251
rhand -28.4349 17.765
rfingers 7.12502
rthumb -1.80592 -12.2071
lclavicle -9.69075e-015 -2.90226e-014
lhumerus -34.9525 21.2699 78.2602
lradius 30.2573
lwrist -10.5949
lhand -11.686 30.5649
lfingers 7.12502
lthumb 14.3596 60.0482
rfemur -14.2628 -1.66555 32.8237
rtibia 38.3872
rfoot -19.3755 -6.58753
rtoes 27.0339
lfemur -38.2221 -10.2041 -12.5603
ltibia 57.1552
lfoot -10.2773 -3.31603
ltoes -5.26341
824
root -18.5507 17.7387 -3.12845 0.0428012 8.60897 -4.2701
lowerback 10.8306 5.54116 6.53264
upperback 2.28907 8.12244 1.08067
thorax -2.88381 3.99504 -3.51452
lowerneck -4.18124 20.0262 0.609069
upperneck 17.6327 31.9037 -18.0341
head 9.52057 14.0068 -2.39838
rclavicle 1.80844e-013 -4.37326e-015
rhumerus -29.9173 -8.82176 -74.8053
rradius 37.4993
rwrist -7.97106
rhand -28.6054 18.0247
rfingers 7.12502
rthumb -1.97057 -11.9459
lclavicle 1.80844e-013 -4.37326e-015
lhumerus -35.2621 21.4407 78.1625
lradius 30.1525
lwrist -10.5475
lhand -11.7014 30.4824
lfingers 7.12502
lthumb 14.3447 59.9668
rfemur -14.3381 -1.98581 32.7328
rtibia 38.4488
rfoot -19.5366 -6.42701
rtoes 26.2265
lfemur -38.0287 -10.0422 -12.6788
ltibia 58.9661
lfoot -10.1686 -3.36425
ltoes -6.04315
825
root -18.5505 17.7539 -3.20803 -0.098838 8.66 -4.372
lowerback 10.8436 5.55196 6.67729
upperback 2.29909 8.1543 1.10281
thorax -2.86012 4.01114 -3.5732
lowerneck -4.35819 20.0473 0.566148
upperneck 17.8706 31.9819 -17.8898
head 9.61131 14.0152 -2.31281
rclavicle 8.11538e-014 -7.15625e-015
rhumerus -30.0364 -8.63895 -74.8396
rradius 37.5858
rwrist -8.19395
rhand -28.7796 17.9447
rfingers 7.12502
rthumb -2.13882 -12.0244
lclavicle 8.11538e-014 -7.15625e-015
lhumerus -35.4946 21.7009 78.0467
lradius 30.0302
lwrist -10.6851
lhand -11.8149 30.6136
lfingers 7.12502
lthumb 14.2353 60.1058
rfemur -14.4758 -2.35276 32.739
rtibia 38.4565
rfoot -19.4829 -6.06581
rtoes 26.0631
lfemur -37.8835 -9.8699 -12.6393
ltibia 60.6983
lfoot -9.5984 -3.63383
ltoes -4.80877
826
root -18.5501 17.7622 -3.29305 -0.0795033 8.72027 -4.4376
lowerback 10.7671 5.57977 6.75458
upperback 2.2582 8.19572 1.09885
thorax -2.84522 4.031 -3.61653
lowerneck -4.94985 20.0636 0.340286
upperneck 18.4329 32.075 -17.3592
head 9.78821 13.9888 -2.04214
rclavicle -7.60351e-014 3.18055e-015
rhumerus -30.1329 -8.55517 -74.8909
rradius 37.7145
rwrist -8.58694
rhand -28.9646 17.7384
rfingers 7.12502
rthumb -2.31749 -12.2288
lclavicle -7.60351e-014 3.18055e-015
lhumerus -35.6851 21.9355 77.9538
lradius 30.0173
lwrist -10.7279
lhand -11.7572 30.7384
lfingers 7.12502
lthumb 14.291 60.2266
rfemur -14.8196 -2.7833 32.6996
rtibia 38.4596
rfoot -19.1934 -5.5398
rtoes 25.858
lfemur -37.8969 -9.68567 -12.6077
ltibia 62.3693
lfoot -8.98874 -3.73104
ltoes -3.84956
827
root -18.5492 17.7697 -3.37808 -0.0522385 8.80124 -4.37109
lowerback 10.6397 5.59153 6.69256
upperback 2.27259 8.19448 1.11499
thorax -2.77155 4.03441 -3.55044
lowerneck -5.26462 20.0925 -0.0719043
upperneck 18.5694 32.1033 -16.9835
head 9.75624 13.9769 -1.85849
rclavicle -2.18663e-014 3.18055e-015
rhumerus -30.1065 -8.69569 -74.7843
rradius 37.8852
rwrist -9.08655
rhand -28.4663 17.2433
rfingers 7.12502
rthumb -1.83628 -12.7285
lclavicle -2.18663e-014 3.18055e-015
lhumerus -35.8447 22.196 77.9612
lradius 30.1008
lwrist -10.7131
lhand -11.6136 30.8098
lfingers 7.12502
lthumb 14.4293 60.2882
rfemur -15.1552 -3.18715 32.5277
rtibia 38.4515
rfoot -18.6277 -5.10869
rtoes 25.1888
lfemur -37.8063 -9.51843 -12.7468
ltibia 63.9587
lfoot -8.53224 -3.67918
ltoes -3.3015
828
root -18.5488 17.7758 -3.45906 -0.173385 8.76936 -4.45017
lowerback 10.5577 5.64209 6.78592
upperback 2.31399 8.26383 1.13688
thorax -2.66582 4.07379 -3.57147
lowerneck -5.16957 20.0926 -0.168442
upperneck 18.4257 32.0428 -16.914
head 9.65146 13.9731 -1.85864
rclavicle -5.77966e-014 4.37326e-015
rhumerus -30.1812 -8.94949 -74.6568
rradius 37.966
rwrist -9.12276
rhand -27.8281 17.357
rfingers 7.12502
rthumb -1.21991 -12.6193
lclavicle -5.77966e-014 4.37326e-015
lhumerus -36.0263 22.1995 77.9337
lradius 30.1448
lwrist -10.5617
lhand -11.5375 30.6629
lfingers 7.12502
lthumb 14.5027 60.136
rfemur -15.3144 -3.41934 32.5383
rtibia 38.398
rfoot -18.595 -4.94482
rtoes 24.382
lfemur -37.4683 -9.21158 -12.742
ltibia 65.4445
lfoot -8.26911 -3.78493
ltoes -3.69369
829
root -18.5536 17.7895 -3.53943 -0.314842 8.61521 -4.72033
lowerback 10.5629 5.74853 7.01726
upperback 2.27476 8.43297 1.15685
thorax -2.66151 4.15565 -3.69351
lowerneck -5.06766 20.0631 0.0549186
upperneck 18.4935 31.9829 -16.8723
head 9.67761 13.9609 -1.88478
rclavicle -4.68138e-014 2.26615e-014
rhumerus -30.4518 -9.00134 -74.7718
rradius 37.4339
rwrist -7.70039
rhand -29.0264 19.2159
rfingers 7.12502
rthumb -2.3772 -10.7506
lclavicle -4.68138e-014 2.26615e-014
lhumerus -36.1675 22.0949 77.8087
lradius 30.0101
lwrist -10.4154
lhand -11.4425 30.5432
lfingers 7.12502
lthumb 14.5941 60.0097
rfemur -15.4429 -3.41083 32.7842
rtibia 38.2775
rfoot -18.0413 -4.88882
rtoes 23.2335
lfemur -37.0463 -8.8438 -12.4573
ltibia 66.7839
lfoot -8.11528 -4.0452
ltoes -4.5999
830
root -18.5587 17.815 -3.61661 -0.322033 8.53447 -4.80095
lowerback 10.4811 5.82566 7.02737
upperback 2.19877 8.53425 1.17144
thorax -2.68616 4.20305 -3.68885
lowerneck -5.01123 20.0661 0.0870409
upperneck 18.6022 31.9808 -16.7557
head 9.68854 13.9657 -1.85885
rclavicle -7.37491e-014 2.78299e-015
rhumerus -30.6363 -9.11263 -74.7474
rradius 37.564
rwrist -7.83606
rhand -28.7933 18.8466
rfingers 7.12502
rthumb -2.15204 -11.1223
lclavicle -7.37491e-014 2.78299e-015
lhumerus -36.3135 22.2473 77.6746
lradius 29.7823
lwrist -10.4635
lhand -11.4221 30.6932
lfingers 7.12502
lthumb 14.6139 60.1583
rfemur -15.6516 -3.35178 32.8199
rtibia 38.1113
rfoot -17.5596 -4.68722
rtoes 23.6586
lfemur -36.6111 -8.64999 -12.3451
ltibia 67.9288
lfoot -7.85946 -4.43783
ltoes -4.74022
831
root -18.5594 17.8337 -3.69117 -0.336445 8.53559 -4.7974
lowerback 10.3698 5.84157 6.97419
upperback 2.14918 8.54442 1.19811
thorax -2.68796 4.20732 -3.62422
lowerneck -4.92408 20.1225 -0.0315876
upperneck 18.6025 32.0361 -16.6438
head 9.6384 14.0025 -1.82079
rclavicle 7.10655e-015 4.77083e-015
rhumerus -30.7609 -8.94419 -74.7494
rradius 37.5668
rwrist -7.96205
rhand -28.667 18.6407
rfingers 7.12502
rthumb -2.0301 -11.3294
lclavicle 7.10655e-015 4.77083e-015
lhumerus -36.5358 22.5416 77.5196
lradius 29.6312
lwrist -10.561
lhand -11.5311 30.5554
lfingers 7.12502
lthumb 14.5088 60.0281
rfemur -15.8278 -3.40248 32.7486
rtibia 37.9523
rfoot -16.9616 -4.40247
rtoes 24.8036
lfemur -36.1069 -8.4776 -12.3733
ltibia 68.9481
lfoot -7.57435 -4.9236
ltoes -5.30859
832
root -18.5589 17.8449 -3.77068 -0.375598 8.51985 -4.82558
lowerback 10.3709 5.8586 6.96885
upperback 2.09716 8.5701 1.21399
thorax -2.74374 4.21646 -3.61164
lowerneck -4.86479 20.189 0.0406271
upperneck 18.6889 32.147 -16.6305
head 9.67953 14.0547 -1.80902
rclavicle 7.47927e-014 3.97569e-015
rhumerus -30.865 -8.66585 -74.8477
rradius 37.5385
rwrist -8.3272
rhand -28.551 18.101
rfingers 7.12502
rthumb -1.91812 -11.8701
lclavicle 7.47927e-014 3.97569e-015
lhumerus -36.7263 22.7317 77.3881
lradius 29.5589
lwrist -10.5891
lhand -11.6418 30.4015
lfingers 7.12502
lthumb 14.4022 59.8818
rfemur -16.0276 -3.4876 32.7212
rtibia 37.835
rfoot -16.1997 -4.10403
rtoes 26.1934
lfemur -35.584 -8.25534 -12.3692
ltibia 69.8904
lfoot -7.20354 -5.31487
ltoes -5.80048
833
root -18.5564 17.8584 -3.84974 -0.37429 8.53998 -4.69351
lowerback 10.2782 5.87006 6.83608
upperback 2.07879 8.56263 1.157
thorax -2.72341 4.2144 -3.58841
lowerneck -4.86798 20.2341 0.213782
upperneck 18.7813 32.2366 -16.6608
head 9.75615 14.0918 -1.81243
rclavicle 1.61016e-014 -2.22639e-014
rhumerus -30.9332 -8.48894 -75.001
rradius 37.4888
rwrist -8.61807
rhand -28.6758 17.9373
rfingers 7.12502
rthumb -2.03857 -12.0327
lclavicle 1.61016e-014 -2.22639e-014
lhumerus -36.822 23.014 77.199
lradius 29.422
lwrist -10.7243
lhand -11.5846 30.4044
lfingers 7.12502
lthumb 14.4573 59.8808
rfemur -16.276 -3.64705 32.526
rtibia 37.7631
rfoot -15.4216 -3.76348
rtoes 27.5598
lfemur -34.9652 -8.13983 -12.5552
ltibia 70.718
lfoot -6.8989 -5.57485
ltoes -5.67282
834
root -18.5544 17.8691 -3.92937 -0.422034 8.57217 -4.68994
lowerback 10.1594 5.85445 6.82727
upperback 2.09087 8.53006 1.13125
thorax -2.64617 4.20215 -3.59142
lowerneck -4.9847 20.2245 0.174541
upperneck 18.7192 32.2023 -16.617
head 9.73485 14.0738 -1.79116
rclavicle -4.76586e-014 -5.96354e-015
rhumerus -30.9488 -8.48257 -75.1064
rradius 37.2092
rwrist -8.31505
rhand -29.0289 18.6354
rfingers 7.12502
rthumb -2.37961 -11.3311
lclavicle -4.76586e-014 -5.96354e-015
lhumerus -36.8417 23.286 77.0332
lradius 29.2537
lwrist -10.7995
lhand -11.5893 30.6186
lfingers 7.12502
lthumb 14.4528 60.0953
rfemur -16.505 -3.72316 32.4945
rtibia 37.6868
rfoot -14.7508 -3.61868
rtoes 27.9085
lfemur -34.2743 -7.99079 -12.5971
ltibia 71.4657
lfoot -6.77248 -5.9704
ltoes -6.00107
835
root -18.5569 17.8744 -4.01399 -0.423066 8.54026 -4.96524
lowerback 10.1482 5.87627 7.05624
upperback 1.9991 8.58803 1.16144
thorax -2.70112 4.22483 -3.69314
lowerneck -5.00942 20.216 0.306428
upperneck 18.8406 32.2048 -16.5746
head 9.79561 14.0705 -1.78202
rclavicle -1.34677e-014 -2.74323e-014
rhumerus -31.0175 -8.85634 -75.0008
rradius 37.5825
rwrist -9.42103
rhand -27.5027 16.866
rfingers 7.12502
rthumb -0.905628 -13.1118
lclavicle -1.34677e-014 -2.74323e-014
lhumerus -36.8914 23.3213 76.9097
lradius 29.1164
lwrist -10.7921
lhand -11.7186 30.878
lfingers 7.12502
lthumb 14.3281 60.3636
rfemur -16.8481 -3.46465 32.8164
rtibia 37.5779
rfoot -13.9949 -3.65928
rtoes 28.6026
lfemur -33.7583 -7.69403 -12.2392
ltibia 72.1385
lfoot -6.30896 -6.65438
ltoes -5.90949
836
root -18.5574 17.8846 -4.09382 -0.360406 8.60717 -5.08796
lowerback 10.03 5.88247 7.14619
upperback 1.9121 8.60031 1.15297
thorax -2.71146 4.22794 -3.74262
lowerneck -4.89486 20.2523 0.518215
upperneck 18.92 32.2682 -16.6098
head 9.85146 14.1078 -1.80896
rclavicle -2.04251e-014 -1.51076e-014
rhumerus -31.202 -8.89615 -75.1288
rradius 37.4337
rwrist -8.96351
rhand -28.3091 16.7864
rfingers 7.12502
rthumb -1.68445 -13.1867
lclavicle -2.04251e-014 -1.51076e-014
lhumerus -37.0278 23.3132 76.7748
lradius 29.0851
lwrist -10.797
lhand -11.7694 30.6632
lfingers 7.12502
lthumb 14.2792 60.1522
rfemur -17.1824 -3.28096 32.9591
rtibia 37.4342
rfoot -13.3221 -3.62667
rtoes 29.5939
lfemur -33.179 -7.56564 -12.0568
ltibia 72.6254
lfoot -5.5563 -7.35278
ltoes -4.97949
